<svg width="100" height="100" viewBox="0 0 100 100" fill="none" xmlns="http://www.w3.org/2000/svg">
<path d="M75.4181 2.49999V47.8333V60.1666C75.4181 61.4706 75.9032 63.9896 75.2462 65.1358C74.7273 66.041 73.1199 66.5941 72.2408 67.0965C69.6719 68.5643 67.1203 70.0618 64.5485 71.525C60.9699 73.5611 57.4198 75.6471 53.8462 77.6916C52.7111 78.341 50.8206 79.9783 49.4984 80.0138C48.8213 80.0321 48.055 79.3921 47.4917 79.0701L43.3111 76.6666C38.5147 73.9193 33.689 71.2103 28.9298 68.3995C27.5144 67.5635 24.4415 66.5228 23.5833 65.1118C23.0858 64.2941 23.4114 62.5985 23.4114 61.6666V52.8333V40.8333C23.4114 39.41 22.9457 37.0125 23.5122 35.7017C23.7843 35.0723 24.6923 34.7488 25.2509 34.4298L29.5987 31.9298C34.1198 29.3465 38.6664 26.7908 43.1438 24.1332C44.802 23.149 47.4183 20.9382 49.3311 20.7013C50.5694 20.548 52.6338 22.3248 53.6789 22.9293C57.2983 25.0228 61.1218 27.9082 65.0502 29.3333V16.1667C65.0502 14.9296 65.5524 12.2894 64.8783 11.2316C64.5187 10.6672 63.6065 10.347 63.0435 10.0249C61.537 9.16307 60.031 8.29832 58.5284 7.42926C56.4116 6.20479 54.2973 4.97642 52.1739 3.76311C51.4291 3.33752 50.3801 2.43936 49.4984 2.41654C48.7112 2.39616 47.8132 3.15183 47.1572 3.52507C45.4219 4.51232 43.706 5.53359 41.9733 6.52494C35.2771 10.3558 28.5485 14.1431 21.9064 18.0662C18.5861 20.027 15.2191 21.9167 11.8729 23.8333C10.7713 24.4643 8.58978 25.2245 7.86421 26.2723C7.53319 26.7505 7.69234 27.6165 7.69234 28.1667V32.5V49.3333V67.5V72.3333C7.69234 72.9376 7.51831 73.8803 7.86421 74.4118C8.33587 75.1365 9.63414 75.5796 10.3679 76C12.3764 77.1505 14.3977 78.2851 16.388 79.4665C24.0166 83.9946 31.7855 88.2953 39.4649 92.7373C41.8039 94.0903 44.1373 95.4543 46.4883 96.7865C47.3179 97.2565 48.5111 98.2726 49.4984 98.2603C50.4978 98.2476 51.6726 97.2208 52.5084 96.7373C54.7883 95.4186 57.0753 94.1108 59.3646 92.8083C66.9119 88.5141 74.3922 84.102 81.9398 79.8083C84.1734 78.5375 86.4191 77.2781 88.6288 75.9665C89.3537 75.5363 90.6453 75.0978 91.1325 74.3943C91.5268 73.8248 91.3044 72.6605 91.3044 72V65.6666V42V20.3333V14.1667C91.3044 13.4181 91.5233 12.2547 91.2035 11.5631C90.7279 10.5347 88.4184 9.71666 87.4582 9.16666C84.7241 7.60051 82.0057 6.00661 79.2642 4.45318C78.0626 3.77228 76.7913 2.74698 75.4181 2.49999Z" fill="#1E293B"/>
<path d="M49.1639 35.4913C48.1366 35.7192 47.0627 36.6045 46.1538 37.1198C43.9152 38.389 41.7017 39.7023 39.4649 40.975C38.6181 41.4567 36.7926 42.1002 36.3885 43.035C35.9918 43.9528 36.2876 45.5103 36.2876 46.5V54.3333C36.2876 55.269 35.9349 57.106 36.4595 57.9118C36.8789 58.5563 37.9778 58.9378 38.6288 59.3083C40.2493 60.2302 41.8731 61.1525 43.4783 62.1005C44.862 62.9178 46.2717 63.6903 47.6589 64.5018C48.2575 64.852 48.9269 65.3975 49.6655 65.243C50.764 65.013 51.8778 64.0742 52.8428 63.525L59.5318 59.6917C60.3149 59.2435 62.2177 58.5532 62.4886 57.6317C62.7863 56.6192 62.5418 55.219 62.5418 54.1667V46.6667C62.5418 45.6747 62.9097 43.7573 62.3699 42.8965C61.9565 42.2372 60.857 41.8483 60.2007 41.475C58.5252 40.5217 56.8525 39.5612 55.1839 38.596C53.7923 37.791 52.3992 36.9897 51.0033 36.1917C50.4612 35.8817 49.8288 35.3437 49.1639 35.4913Z" fill="#2563EB"/>
</svg>
