<svg width="275" height="50" viewBox="0 0 275 50" fill="none" xmlns="http://www.w3.org/2000/svg">
<path d="M60.5284 40V10.9091H80.1307V15.9801H66.679V22.9119H79.1222V27.983H66.679V34.929H80.1875V40H60.5284ZM91.9286 40.4119C90.5365 40.4119 89.296 40.1705 88.207 39.6875C87.1179 39.1951 86.2562 38.4706 85.6217 37.5142C84.9967 36.5483 84.6842 35.3456 84.6842 33.9062C84.6842 32.6941 84.9068 31.6761 85.3518 30.8523C85.7969 30.0284 86.403 29.3655 87.17 28.8636C87.9371 28.3617 88.8083 27.983 89.7837 27.7273C90.7685 27.4716 91.8007 27.2917 92.8803 27.1875C94.1492 27.0549 95.1719 26.9318 95.9484 26.8182C96.725 26.6951 97.2884 26.5152 97.6388 26.2784C97.9892 26.0417 98.1643 25.6913 98.1643 25.2273V25.142C98.1643 24.2424 97.8803 23.5464 97.3121 23.054C96.7534 22.5616 95.9579 22.3153 94.9257 22.3153C93.8367 22.3153 92.9702 22.5568 92.3263 23.0398C91.6823 23.5133 91.2562 24.1098 91.0479 24.8295L85.4513 24.375C85.7354 23.0492 86.2941 21.9034 87.1274 20.9375C87.9607 19.9621 89.0356 19.214 90.3518 18.6932C91.6776 18.1629 93.2117 17.8977 94.9541 17.8977C96.1662 17.8977 97.3263 18.0398 98.4342 18.3239C99.5517 18.608 100.541 19.0483 101.403 19.6449C102.274 20.2415 102.961 21.0085 103.463 21.946C103.965 22.8741 104.215 23.9867 104.215 25.2841V40H98.4768V36.9744H98.3064C97.956 37.6562 97.4873 38.2576 96.9001 38.7784C96.313 39.2898 95.6075 39.6922 94.7837 39.9858C93.9598 40.2699 93.0081 40.4119 91.9286 40.4119ZM93.6615 36.2358C94.5517 36.2358 95.3376 36.0606 96.0195 35.7102C96.7013 35.3504 97.2363 34.8674 97.6246 34.2614C98.0128 33.6553 98.207 32.9687 98.207 32.2017V29.8864C98.0176 30.0095 97.7571 30.1231 97.4257 30.2273C97.1037 30.322 96.7392 30.4119 96.332 30.4972C95.9248 30.5729 95.5176 30.6439 95.1104 30.7102C94.7032 30.767 94.3339 30.8191 94.0024 30.8665C93.2922 30.9706 92.6719 31.1364 92.1416 31.3636C91.6113 31.5909 91.1994 31.8987 90.9058 32.2869C90.6123 32.6657 90.4655 33.1392 90.4655 33.7074C90.4655 34.5312 90.7638 35.161 91.3604 35.5966C91.9664 36.0227 92.7335 36.2358 93.6615 36.2358ZM109.596 40V36.392L120.278 23.1676V23.0114H109.966V18.1818H127.565V22.1165L117.537 35.0142V35.1705H127.935V40H109.596ZM137.097 48.1818C136.33 48.1818 135.611 48.1203 134.938 47.9972C134.275 47.8835 133.726 47.7367 133.291 47.5568L134.654 43.0398C135.364 43.2576 136.004 43.3759 136.572 43.3949C137.15 43.4138 137.647 43.2813 138.063 42.9972C138.489 42.7131 138.835 42.2301 139.1 41.5483L139.455 40.625L131.629 18.1818H137.992L142.509 34.2045H142.737L147.296 18.1818H153.703L145.222 42.358C144.815 43.5322 144.261 44.5549 143.561 45.4261C142.869 46.3068 141.993 46.9839 140.933 47.4574C139.872 47.9403 138.594 48.1818 137.097 48.1818ZM183.38 21.0938H177.159C177.045 20.2888 176.813 19.5739 176.463 18.9489C176.112 18.3144 175.663 17.7746 175.113 17.3295C174.564 16.8845 173.93 16.5436 173.21 16.3068C172.5 16.0701 171.728 15.9517 170.895 15.9517C169.389 15.9517 168.077 16.3258 166.96 17.0739C165.843 17.8125 164.976 18.892 164.361 20.3125C163.745 21.7235 163.437 23.4375 163.437 25.4545C163.437 27.5284 163.745 29.2708 164.361 30.6818C164.986 32.0928 165.857 33.1581 166.974 33.8778C168.092 34.5975 169.384 34.9574 170.852 34.9574C171.676 34.9574 172.438 34.8485 173.139 34.6307C173.849 34.4129 174.479 34.0956 175.028 33.679C175.577 33.2528 176.032 32.7367 176.392 32.1307C176.761 31.5246 177.017 30.8333 177.159 30.0568L183.38 30.0852C183.219 31.4205 182.817 32.7083 182.173 33.9489C181.539 35.1799 180.682 36.2831 179.602 37.2585C178.532 38.2244 177.254 38.9915 175.767 39.5597C174.289 40.1184 172.618 40.3977 170.753 40.3977C168.158 40.3977 165.838 39.8106 163.792 38.6364C161.756 37.4621 160.146 35.7623 158.963 33.5369C157.789 31.3116 157.201 28.6174 157.201 25.4545C157.201 22.2822 157.798 19.5833 158.991 17.358C160.184 15.1326 161.804 13.4375 163.849 12.2727C165.895 11.0985 168.196 10.5114 170.753 10.5114C172.438 10.5114 174.001 10.7481 175.44 11.2216C176.889 11.6951 178.172 12.3864 179.289 13.2955C180.407 14.1951 181.316 15.2983 182.017 16.6051C182.727 17.9119 183.182 19.4081 183.38 21.0938ZM194.528 10.9091V40H188.477V10.9091H194.528ZM210.034 40.4261C207.827 40.4261 205.919 39.9574 204.309 39.0199C202.709 38.0729 201.473 36.7566 200.602 35.071C199.731 33.3759 199.295 31.411 199.295 29.1761C199.295 26.9223 199.731 24.9527 200.602 23.267C201.473 21.572 202.709 20.2557 204.309 19.3182C205.919 18.3712 207.827 17.8977 210.034 17.8977C212.24 17.8977 214.144 18.3712 215.744 19.3182C217.354 20.2557 218.594 21.572 219.465 23.267C220.337 24.9527 220.772 26.9223 220.772 29.1761C220.772 31.411 220.337 33.3759 219.465 35.071C218.594 36.7566 217.354 38.0729 215.744 39.0199C214.144 39.9574 212.24 40.4261 210.034 40.4261ZM210.062 35.7386C211.066 35.7386 211.904 35.4545 212.576 34.8864C213.249 34.3087 213.755 33.5227 214.096 32.5284C214.447 31.5341 214.622 30.4025 214.622 29.1335C214.622 27.8646 214.447 26.733 214.096 25.7386C213.755 24.7443 213.249 23.9583 212.576 23.3807C211.904 22.803 211.066 22.5142 210.062 22.5142C209.049 22.5142 208.197 22.803 207.505 23.3807C206.823 23.9583 206.307 24.7443 205.957 25.7386C205.616 26.733 205.446 27.8646 205.446 29.1335C205.446 30.4025 205.616 31.5341 205.957 32.5284C206.307 33.5227 206.823 34.3087 207.505 34.8864C208.197 35.4545 209.049 35.7386 210.062 35.7386ZM239.498 30.7102V18.1818H245.55V40H239.74V36.0369H239.513C239.02 37.3153 238.201 38.3428 237.055 39.1193C235.919 39.8958 234.532 40.2841 232.893 40.2841C231.435 40.2841 230.152 39.9527 229.044 39.2898C227.936 38.6269 227.069 37.6847 226.444 36.4631C225.829 35.2415 225.516 33.7784 225.507 32.0739V18.1818H231.558V30.9943C231.568 32.2822 231.913 33.3002 232.595 34.0483C233.277 34.7964 234.191 35.1705 235.337 35.1705C236.066 35.1705 236.747 35.0047 237.382 34.6733C238.016 34.3324 238.528 33.8305 238.916 33.1676C239.314 32.5047 239.508 31.6856 239.498 30.7102ZM259.23 40.3551C257.572 40.3551 256.071 39.929 254.727 39.0767C253.391 38.215 252.331 36.9508 251.545 35.2841C250.768 33.608 250.38 31.553 250.38 29.1193C250.38 26.6193 250.783 24.5407 251.587 22.8835C252.392 21.2169 253.462 19.9716 254.798 19.1477C256.142 18.3144 257.615 17.8977 259.215 17.8977C260.437 17.8977 261.455 18.1061 262.269 18.5227C263.093 18.9299 263.756 19.4413 264.258 20.0568C264.769 20.6629 265.158 21.2595 265.423 21.8466H265.607V10.9091H271.644V40H265.678V36.5057H265.423C265.139 37.1117 264.736 37.7131 264.215 38.3097C263.704 38.8968 263.036 39.3845 262.212 39.7727C261.398 40.161 260.404 40.3551 259.23 40.3551ZM261.147 35.5398C262.123 35.5398 262.946 35.2746 263.619 34.7443C264.301 34.2045 264.821 33.4517 265.181 32.4858C265.551 31.5199 265.735 30.3883 265.735 29.0909C265.735 27.7936 265.555 26.6667 265.195 25.7102C264.836 24.7538 264.315 24.0152 263.633 23.4943C262.951 22.9735 262.123 22.7131 261.147 22.7131C260.153 22.7131 259.315 22.983 258.633 23.5227C257.951 24.0625 257.435 24.8106 257.085 25.767C256.734 26.7235 256.559 27.8314 256.559 29.0909C256.559 30.3598 256.734 31.482 257.085 32.4574C257.445 33.4233 257.961 34.1809 258.633 34.7301C259.315 35.2699 260.153 35.5398 261.147 35.5398Z" fill="#1E293B"/>
<path d="M37.709 1.25006V23.9167V30.0834C37.709 30.7354 37.9516 31.9949 37.6231 32.568C37.3636 33.0206 36.56 33.2971 36.1204 33.5483C34.836 34.2822 33.5601 35.031 32.2743 35.7626C30.485 36.7806 28.7099 37.8236 26.9231 38.8459C26.3555 39.1706 25.4103 39.9892 24.7492 40.007C24.4106 40.0161 24.0275 39.6961 23.7458 39.5351L21.6555 38.3334C19.2574 36.9597 16.8445 35.6052 14.4649 34.1998C13.7572 33.7818 12.2207 33.2615 11.7917 32.556C11.5429 32.1471 11.7057 31.2993 11.7057 30.8334V26.4167V20.4167C11.7057 19.7051 11.4728 18.5063 11.7561 17.8509C11.8922 17.5362 12.3462 17.3745 12.6254 17.215L14.7993 15.965C17.0599 14.6733 19.3332 13.3955 21.5719 12.0666C22.401 11.5746 23.7091 10.4691 24.6656 10.3507C25.2847 10.2741 26.3169 11.1625 26.8395 11.4647C28.6492 12.5115 30.5609 13.9541 32.5251 14.6667V8.08339C32.5251 7.46485 32.7762 6.14477 32.4391 5.61586C32.2594 5.33367 31.8033 5.17357 31.5217 5.01253C30.7685 4.5816 30.0155 4.14922 29.2642 3.71469C28.2058 3.10246 27.1487 2.48827 26.087 1.88162C25.7146 1.66882 25.1901 1.21974 24.7492 1.20833C24.3556 1.19814 23.9066 1.57597 23.5786 1.7626C22.711 2.25622 21.853 2.76686 20.9866 3.26253C17.6386 5.17796 14.2743 7.07161 10.9532 9.03314C9.29307 10.0136 7.60954 10.9584 5.93647 11.9167C5.38565 12.2322 4.29489 12.6123 3.93211 13.1362C3.7666 13.3753 3.84617 13.8083 3.84617 14.0834V16.2501V24.6667V33.75V36.1667C3.84617 36.4689 3.75915 36.9402 3.93211 37.206C4.16793 37.5683 4.81707 37.7899 5.18396 38C6.1882 38.5753 7.19884 39.1426 8.19399 39.7333C12.0083 41.9974 15.8927 44.1477 19.7325 46.3687C20.9019 47.0452 22.0687 47.7272 23.2442 48.3933C23.659 48.6283 24.2555 49.1364 24.7492 49.1302C25.2489 49.1239 25.8363 48.6105 26.2542 48.3687C27.3942 47.7094 28.5376 47.0555 29.6823 46.4042C33.4559 44.2571 37.1961 42.0511 40.9699 39.9042C42.0867 39.2688 43.2095 38.6391 44.3144 37.9833C44.6768 37.7682 45.3227 37.549 45.5662 37.1972C45.7634 36.9125 45.6522 36.3303 45.6522 36V32.8334V21.0001V10.1667V7.08339C45.6522 6.70909 45.7616 6.12739 45.6018 5.78162C45.364 5.26742 44.2092 4.85839 43.7291 4.58339C42.362 3.80031 41.0028 3.00337 39.6321 2.22665C39.0313 1.8862 38.3957 1.37355 37.709 1.25006Z" fill="#1E293B"/>
<path d="M24.5819 17.7457C24.0683 17.8596 23.5314 18.3023 23.0769 18.56C21.9576 19.1946 20.8508 19.8512 19.7324 20.4876C19.309 20.7284 18.3963 21.0501 18.1942 21.5176C17.9959 21.9765 18.1438 22.7552 18.1438 23.2501V27.1667C18.1438 27.6346 17.9675 28.5531 18.2298 28.956C18.4395 29.2782 18.9889 29.469 19.3144 29.6542C20.1247 30.1151 20.9365 30.5763 21.7391 31.0503C22.431 31.459 23.1359 31.8452 23.8294 32.251C24.1288 32.4261 24.4635 32.6988 24.8328 32.6216C25.382 32.5066 25.9389 32.0371 26.4214 31.7626L29.7659 29.8459C30.1574 29.6218 31.1089 29.2766 31.2443 28.8159C31.3931 28.3096 31.2709 27.6096 31.2709 27.0834V23.3334C31.2709 22.8374 31.4548 21.8787 31.1849 21.4483C30.9783 21.1186 30.4285 20.9242 30.1003 20.7376C29.2626 20.2609 28.4263 19.7806 27.592 19.2981C26.8962 18.8956 26.1996 18.4949 25.5017 18.0959C25.2306 17.9409 24.9144 17.6719 24.5819 17.7457Z" fill="#2563EB"/>
</svg>
