<svg width="461" height="100" viewBox="0 0 461 100" fill="none" xmlns="http://www.w3.org/2000/svg">
<path d="M75.4181 2.49999V47.8333V60.1666C75.4181 61.4706 75.9032 63.9896 75.2462 65.1358C74.7273 66.041 73.1199 66.5941 72.2408 67.0965C69.6719 68.5643 67.1203 70.0618 64.5485 71.525C60.9699 73.5611 57.4198 75.6471 53.8462 77.6916C52.7111 78.341 50.8206 79.9783 49.4984 80.0138C48.8213 80.0321 48.055 79.3921 47.4917 79.0701L43.3111 76.6666C38.5147 73.9193 33.689 71.2103 28.9298 68.3995C27.5144 67.5635 24.4415 66.5228 23.5833 65.1118C23.0858 64.2941 23.4114 62.5985 23.4114 61.6666V52.8333V40.8333C23.4114 39.41 22.9457 37.0125 23.5122 35.7017C23.7843 35.0723 24.6923 34.7488 25.2509 34.4298L29.5987 31.9298C34.1198 29.3465 38.6664 26.7908 43.1438 24.1332C44.802 23.149 47.4183 20.9382 49.3311 20.7013C50.5694 20.548 52.6338 22.3248 53.6789 22.9293C57.2983 25.0228 61.1218 27.9082 65.0502 29.3333V16.1667C65.0502 14.9296 65.5524 12.2894 64.8783 11.2316C64.5187 10.6672 63.6065 10.347 63.0435 10.0249C61.537 9.16307 60.031 8.29832 58.5284 7.42926C56.4116 6.20479 54.2973 4.97642 52.1739 3.76311C51.4291 3.33752 50.3801 2.43936 49.4984 2.41654C48.7112 2.39616 47.8132 3.15183 47.1572 3.52507C45.4219 4.51232 43.706 5.53359 41.9733 6.52494C35.2771 10.3558 28.5485 14.1431 21.9064 18.0662C18.5861 20.027 15.2191 21.9167 11.8729 23.8333C10.7713 24.4643 8.58978 25.2245 7.86421 26.2723C7.53319 26.7505 7.69234 27.6165 7.69234 28.1667V32.5V49.3333V67.5V72.3333C7.69234 72.9376 7.51831 73.8803 7.86421 74.4118C8.33587 75.1365 9.63414 75.5796 10.3679 76C12.3764 77.1505 14.3977 78.2851 16.388 79.4665C24.0166 83.9946 31.7855 88.2953 39.4649 92.7373C41.8039 94.0903 44.1373 95.4543 46.4883 96.7865C47.3179 97.2565 48.5111 98.2726 49.4984 98.2603C50.4978 98.2476 51.6726 97.2208 52.5084 96.7373C54.7883 95.4186 57.0753 94.1108 59.3646 92.8083C66.9119 88.5141 74.3922 84.102 81.9398 79.8083C84.1734 78.5375 86.4191 77.2781 88.6288 75.9665C89.3537 75.5363 90.6453 75.0978 91.1325 74.3943C91.5268 73.8248 91.3044 72.6605 91.3044 72V65.6666V42V20.3333V14.1667C91.3044 13.4181 91.5233 12.2547 91.2035 11.5631C90.7279 10.5347 88.4184 9.71666 87.4582 9.16666C84.7241 7.60051 82.0057 6.00661 79.2642 4.45318C78.0626 3.77228 76.7913 2.74698 75.4181 2.49999Z" fill="#1E293B"/>
<path d="M49.1639 35.4913C48.1366 35.7192 47.0627 36.6045 46.1538 37.1198C43.9152 38.389 41.7017 39.7023 39.4649 40.975C38.6181 41.4567 36.7926 42.1002 36.3885 43.035C35.9918 43.9528 36.2876 45.5103 36.2876 46.5V54.3333C36.2876 55.269 35.9349 57.106 36.4595 57.9118C36.8789 58.5563 37.9778 58.9378 38.6288 59.3083C40.2493 60.2302 41.8731 61.1525 43.4783 62.1005C44.862 62.9178 46.2717 63.6903 47.6589 64.5018C48.2575 64.852 48.9269 65.3975 49.6655 65.243C50.764 65.013 51.8778 64.0742 52.8428 63.525L59.5318 59.6917C60.3149 59.2435 62.2177 58.5532 62.4886 57.6317C62.7863 56.6192 62.5418 55.219 62.5418 54.1667V46.6667C62.5418 45.6747 62.9097 43.7573 62.3699 42.8965C61.9565 42.2372 60.857 41.8483 60.2007 41.475C58.5252 40.5217 56.8525 39.5612 55.1839 38.596C53.7923 37.791 52.3992 36.9897 51.0033 36.1917C50.4612 35.8817 49.8288 35.3437 49.1639 35.4913Z" fill="#2563EB"/>
<path d="M119.045 74V27.4545H150.409V35.5682H128.886V46.6591H148.795V54.7727H128.886V65.8864H150.5V74H119.045ZM169.286 74.6591C167.058 74.6591 165.074 74.2727 163.331 73.5C161.589 72.7121 160.21 71.553 159.195 70.0227C158.195 68.4773 157.695 66.553 157.695 64.25C157.695 62.3106 158.051 60.6818 158.763 59.3636C159.475 58.0455 160.445 56.9848 161.672 56.1818C162.899 55.3788 164.293 54.7727 165.854 54.3636C167.43 53.9545 169.081 53.6667 170.808 53.5C172.839 53.2879 174.475 53.0909 175.717 52.9091C176.96 52.7121 177.861 52.4242 178.422 52.0455C178.983 51.6667 179.263 51.1061 179.263 50.3636V50.2273C179.263 48.7879 178.808 47.6742 177.899 46.8864C177.005 46.0985 175.733 45.7045 174.081 45.7045C172.339 45.7045 170.952 46.0909 169.922 46.8636C168.892 47.6212 168.21 48.5758 167.877 49.7273L158.922 49C159.377 46.8788 160.271 45.0455 161.604 43.5C162.937 41.9394 164.657 40.7424 166.763 39.9091C168.884 39.0606 171.339 38.6364 174.127 38.6364C176.066 38.6364 177.922 38.8636 179.695 39.3182C181.483 39.7727 183.066 40.4773 184.445 41.4318C185.839 42.3864 186.937 43.6136 187.74 45.1136C188.543 46.5985 188.945 48.3788 188.945 50.4545V74H179.763V69.1591H179.49C178.93 70.25 178.18 71.2121 177.24 72.0455C176.301 72.8636 175.172 73.5076 173.854 73.9773C172.536 74.4318 171.013 74.6591 169.286 74.6591ZM172.058 67.9773C173.483 67.9773 174.74 67.697 175.831 67.1364C176.922 66.5606 177.778 65.7879 178.399 64.8182C179.021 63.8485 179.331 62.75 179.331 61.5227V57.8182C179.028 58.0152 178.611 58.197 178.081 58.3636C177.566 58.5152 176.983 58.6591 176.331 58.7955C175.68 58.9167 175.028 59.0303 174.377 59.1364C173.725 59.2273 173.134 59.3106 172.604 59.3864C171.467 59.553 170.475 59.8182 169.627 60.1818C168.778 60.5455 168.119 61.0379 167.649 61.6591C167.18 62.2652 166.945 63.0227 166.945 63.9318C166.945 65.25 167.422 66.2576 168.377 66.9545C169.346 67.6364 170.574 67.9773 172.058 67.9773ZM197.554 74V68.2273L214.645 47.0682V46.8182H198.145V39.0909H226.304V45.3864L210.259 66.0227V66.2727H226.895V74H197.554ZM241.556 87.0909C240.329 87.0909 239.177 86.9924 238.101 86.7955C237.041 86.6136 236.162 86.3788 235.465 86.0909L237.647 78.8636C238.783 79.2121 239.806 79.4015 240.715 79.4318C241.639 79.4621 242.435 79.25 243.101 78.7955C243.783 78.3409 244.336 77.5682 244.76 76.4773L245.329 75L232.806 39.0909H242.988L250.215 64.7273H250.579L257.874 39.0909H268.124L254.556 77.7727C253.904 79.6515 253.018 81.2879 251.897 82.6818C250.791 84.0909 249.389 85.1742 247.692 85.9318C245.995 86.7045 243.95 87.0909 241.556 87.0909ZM315.609 43.75H305.654C305.472 42.4621 305.101 41.3182 304.54 40.3182C303.98 39.303 303.26 38.4394 302.381 37.7273C301.503 37.0151 300.487 36.4697 299.336 36.0909C298.2 35.7121 296.965 35.5227 295.631 35.5227C293.222 35.5227 291.124 36.1212 289.336 37.3182C287.548 38.5 286.162 40.2273 285.177 42.5C284.192 44.7576 283.7 47.5 283.7 50.7273C283.7 54.0455 284.192 56.8333 285.177 59.0909C286.177 61.3485 287.571 63.053 289.359 64.2045C291.147 65.3561 293.215 65.9318 295.563 65.9318C296.881 65.9318 298.101 65.7576 299.222 65.4091C300.359 65.0606 301.366 64.553 302.245 63.8864C303.124 63.2045 303.851 62.3788 304.427 61.4091C305.018 60.4394 305.427 59.3333 305.654 58.0909L315.609 58.1364C315.351 60.2727 314.707 62.3333 313.677 64.3182C312.662 66.2879 311.29 68.053 309.563 69.6136C307.851 71.1591 305.806 72.3864 303.427 73.2955C301.063 74.1894 298.389 74.6364 295.404 74.6364C291.253 74.6364 287.54 73.697 284.268 71.8182C281.01 69.9394 278.434 67.2197 276.54 63.6591C274.662 60.0985 273.722 55.7879 273.722 50.7273C273.722 45.6515 274.677 41.3333 276.586 37.7727C278.495 34.2121 281.086 31.5 284.359 29.6364C287.631 27.7576 291.313 26.8182 295.404 26.8182C298.101 26.8182 300.601 27.197 302.904 27.9545C305.222 28.7121 307.275 29.8182 309.063 31.2727C310.851 32.7121 312.306 34.4773 313.427 36.5682C314.563 38.6591 315.29 41.053 315.609 43.75ZM333.445 27.4545V74H323.764V27.4545H333.445ZM358.254 74.6818C354.724 74.6818 351.671 73.9318 349.095 72.4318C346.534 70.9167 344.557 68.8106 343.163 66.1136C341.769 63.4015 341.072 60.2576 341.072 56.6818C341.072 53.0758 341.769 49.9242 343.163 47.2273C344.557 44.5152 346.534 42.4091 349.095 40.9091C351.671 39.3939 354.724 38.6364 358.254 38.6364C361.784 38.6364 364.83 39.3939 367.39 40.9091C369.966 42.4091 371.951 44.5152 373.345 47.2273C374.739 49.9242 375.436 53.0758 375.436 56.6818C375.436 60.2576 374.739 63.4015 373.345 66.1136C371.951 68.8106 369.966 70.9167 367.39 72.4318C364.83 73.9318 361.784 74.6818 358.254 74.6818ZM358.299 67.1818C359.905 67.1818 361.246 66.7273 362.322 65.8182C363.398 64.8939 364.208 63.6364 364.754 62.0455C365.314 60.4545 365.595 58.6439 365.595 56.6136C365.595 54.5833 365.314 52.7727 364.754 51.1818C364.208 49.5909 363.398 48.3333 362.322 47.4091C361.246 46.4848 359.905 46.0227 358.299 46.0227C356.678 46.0227 355.314 46.4848 354.208 47.4091C353.117 48.3333 352.292 49.5909 351.731 51.1818C351.186 52.7727 350.913 54.5833 350.913 56.6136C350.913 58.6439 351.186 60.4545 351.731 62.0455C352.292 63.6364 353.117 64.8939 354.208 65.8182C355.314 66.7273 356.678 67.1818 358.299 67.1818ZM405.397 59.1364V39.0909H415.079V74H405.784V67.6591H405.42C404.632 69.7045 403.322 71.3485 401.488 72.5909C399.67 73.8333 397.451 74.4545 394.829 74.4545C392.496 74.4545 390.443 73.9242 388.67 72.8636C386.897 71.803 385.511 70.2955 384.511 68.3409C383.526 66.3864 383.026 64.0455 383.011 61.3182V39.0909H392.693V59.5909C392.708 61.6515 393.261 63.2803 394.352 64.4773C395.443 65.6742 396.905 66.2727 398.738 66.2727C399.905 66.2727 400.996 66.0076 402.011 65.4773C403.026 64.9318 403.844 64.1288 404.466 63.0682C405.102 62.0076 405.413 60.697 405.397 59.1364ZM436.967 74.5682C434.316 74.5682 431.914 73.8864 429.763 72.5227C427.626 71.1439 425.929 69.1212 424.672 66.4545C423.429 63.7727 422.808 60.4848 422.808 56.5909C422.808 52.5909 423.452 49.2652 424.74 46.6136C426.028 43.947 427.74 41.9545 429.876 40.6364C432.028 39.303 434.384 38.6364 436.945 38.6364C438.899 38.6364 440.528 38.9697 441.831 39.6364C443.149 40.2879 444.21 41.1061 445.013 42.0909C445.831 43.0606 446.452 44.0152 446.876 44.9545H447.172V27.4545H456.831V74H447.285V68.4091H446.876C446.422 69.3788 445.778 70.3409 444.945 71.2955C444.126 72.2348 443.058 73.0152 441.74 73.6364C440.437 74.2576 438.846 74.5682 436.967 74.5682ZM440.035 66.8636C441.596 66.8636 442.914 66.4394 443.99 65.5909C445.081 64.7273 445.914 63.5227 446.49 61.9773C447.081 60.4318 447.376 58.6212 447.376 56.5455C447.376 54.4697 447.088 52.6667 446.513 51.1364C445.937 49.6061 445.104 48.4242 444.013 47.5909C442.922 46.7576 441.596 46.3409 440.035 46.3409C438.445 46.3409 437.104 46.7727 436.013 47.6364C434.922 48.5 434.096 49.697 433.535 51.2273C432.975 52.7576 432.695 54.5303 432.695 56.5455C432.695 58.5758 432.975 60.3712 433.535 61.9318C434.111 63.4773 434.937 64.6894 436.013 65.5682C437.104 66.4318 438.445 66.8636 440.035 66.8636Z" fill="#94A3B8"/>
</svg>
